REM MD5 0e040db9c820442399804e7b821ac26a
FILE "Euro Demo 19 (Europe).bin" BINARY
  TRACK 01 MODE2/2352
    INDEX 01 00:00:00
  TRACK 02 AUDIO
    INDEX 00 05:48:72
    INDEX 01 05:50:72
  TRACK 03 AUDIO
    INDEX 00 06:49:19
    INDEX 01 06:51:19
  TRACK 04 AUDIO
    INDEX 00 10:24:49
    INDEX 01 10:26:49
REM LEADOUT 13:36:58
